<svg width="32" height="32" viewBox="0 0 32 32" fill="none" xmlns="http://www.w3.org/2000/svg">
<circle cx="16" cy="16" r="16" fill="#F3DB21"/>
<path d="M27.2983 16.7255L16.4783 28L5 16.7255L16.4783 3L27.2983 16.7255Z" stroke="#FCE539"/>
<path d="M24.207 18.3873L18.5688 24.3223C17.4267 25.5246 15.5257 25.5721 14.3249 24.4284L8.08266 18.4835C6.9185 17.3748 6.83525 15.5454 7.89389 14.3356L14.127 7.21205C15.3615 5.80118 17.5732 5.85558 18.7368 7.32546L24.3842 14.459C25.3112 15.63 25.2357 17.3045 24.207 18.3873Z" stroke="#A79AF1" stroke-width="12"/>
<path d="M11.9428 20.696C9.47797 18.3681 9.31023 14.4886 11.5783 11.9686C14.1564 9.10398 18.6992 9.24897 21.1067 12.2584C23.0488 14.686 22.9165 18.1825 20.7858 20.4463C18.42 22.96 14.4524 23.0661 11.9428 20.696Z" stroke="#FFE837" stroke-width="3"/>
</svg>
