<svg width="33" height="33" viewBox="0 0 33 33" fill="none" xmlns="http://www.w3.org/2000/svg">
<g clip-path="url(#clip0_29_1276)">
<path d="M5.72911 10.5417L10.9999 12.0633L16.7933 7.85583L8.47911 8.09417C8.39755 8.09777 8.31844 8.12308 8.24994 8.1675L5.61911 9.68C5.53727 9.72534 5.47092 9.79419 5.42864 9.87765C5.38636 9.96111 5.37009 10.0553 5.38194 10.1481C5.39378 10.2409 5.4332 10.3281 5.4951 10.3982C5.55699 10.4684 5.63851 10.5183 5.72911 10.5417Z" fill="#FFBB00"/>
<path d="M31.6434 5.83L25.8684 4.58333C25.3827 4.47789 24.88 4.47817 24.3944 4.58414C23.9089 4.69011 23.4518 4.89929 23.0542 5.1975L5.61002 17.875L1.42085 17.6917C1.1809 17.6835 0.944448 17.7509 0.744883 17.8844C0.545318 18.0179 0.392722 18.2107 0.308643 18.4356C0.224564 18.6605 0.21325 18.9061 0.276297 19.1377C0.339345 19.3694 0.473569 19.5754 0.660018 19.7267L4.73918 22.9625C4.80634 23.0167 4.88627 23.0527 4.97133 23.0671C5.0564 23.0816 5.14375 23.074 5.22502 23.045C6.38918 22.5958 10.725 20.295 15.8492 17.4808L16.8759 28.0317C16.8846 28.123 16.9181 28.2103 16.9727 28.284C17.0274 28.3578 17.1011 28.4152 17.186 28.4501C17.2709 28.485 17.3638 28.4961 17.4545 28.4821C17.5452 28.4681 17.6304 28.4297 17.7009 28.3708L19.9925 26.4642C20.118 26.3589 20.2023 26.2129 20.2309 26.0517L22.4034 13.8692C26.07 11.8342 29.5717 9.86333 32.0375 8.47C32.2934 8.33075 32.5003 8.11622 32.6302 7.85545C32.7601 7.59468 32.8067 7.30029 32.7637 7.01215C32.7206 6.72402 32.5901 6.45608 32.3897 6.24462C32.1893 6.03317 31.9288 5.88842 31.6434 5.83Z" fill="#FFBB00"/>
</g>
<defs>
<clipPath id="clip0_29_1276">
<rect width="33" height="33" fill="white"/>
</clipPath>
</defs>
</svg>
