<svg width="130" height="55" viewBox="0 0 130 55" fill="none" xmlns="http://www.w3.org/2000/svg">
<path d="M1.888 26.48C1.888 25.456 2.25067 24.6773 2.976 24.144C3.70133 23.5893 4.768 23.312 6.176 23.312V32.848H15.744V26.48C15.744 25.4347 16.1067 24.6453 16.832 24.112C17.5787 23.5787 18.6453 23.312 20.032 23.312V43.12C20.032 44.144 19.6587 44.9333 18.912 45.488C18.1867 46.0213 17.1307 46.288 15.744 46.288V36.56H6.176V43.12C6.176 44.144 5.80267 44.9333 5.056 45.488C4.33067 46.0213 3.27467 46.288 1.888 46.288V26.48ZM29.6698 46.288C28.2831 46.288 27.0244 46.0427 25.8938 45.552C24.7844 45.04 23.9098 44.336 23.2698 43.44C22.6298 42.544 22.3098 41.5307 22.3098 40.4V35.888C22.3098 34.736 22.6191 33.6907 23.2378 32.752C23.8778 31.8133 24.7524 31.0773 25.8618 30.544C26.9711 29.9893 28.2404 29.712 29.6698 29.712C31.0991 29.712 32.3684 29.9893 33.4778 30.544C34.6084 31.0773 35.4831 31.8133 36.1018 32.752C36.7418 33.6907 37.0618 34.736 37.0618 35.888V40.4C37.0618 41.5307 36.7311 42.544 36.0698 43.44C35.4298 44.336 34.5444 45.04 33.4138 45.552C32.3044 46.0427 31.0564 46.288 29.6698 46.288ZM29.6698 42.864C30.7364 42.864 31.5684 42.6187 32.1658 42.128C32.7844 41.6373 33.0938 40.976 33.0938 40.144V36.08C33.0938 35.2053 32.7844 34.5013 32.1658 33.968C31.5684 33.4133 30.7364 33.136 29.6698 33.136C28.6244 33.136 27.7924 33.4133 27.1738 33.968C26.5551 34.5013 26.2458 35.2053 26.2458 36.08V40.144C26.2458 40.976 26.5551 41.6373 27.1738 42.128C27.7924 42.6187 28.6244 42.864 29.6698 42.864ZM45.4173 46.288C43.6466 46.288 42.3026 45.7867 41.3853 44.784C40.4893 43.76 40.0413 42.4693 40.0413 40.912V25.744C40.0413 24.8693 40.3613 24.2507 41.0013 23.888C41.6626 23.504 42.6759 23.312 44.0413 23.312V40.752C44.0413 41.4773 44.2013 42.0107 44.5213 42.352C44.8413 42.672 45.3533 42.832 46.0573 42.832C46.8466 42.832 47.6359 42.6293 48.4253 42.224C48.6386 42.416 48.7986 42.6613 48.9053 42.96C49.0333 43.2373 49.0973 43.5253 49.0973 43.824C49.0973 44.464 48.7773 45.04 48.1373 45.552C47.4973 46.0427 46.5906 46.288 45.4173 46.288ZM54.5128 28.208C53.7448 28.208 53.1048 27.984 52.5928 27.536C52.1021 27.0667 51.8568 26.4693 51.8568 25.744C51.8568 25.04 52.1021 24.464 52.5928 24.016C53.1048 23.5467 53.7448 23.312 54.5128 23.312C55.2808 23.312 55.9101 23.5467 56.4008 24.016C56.9128 24.464 57.1688 25.04 57.1688 25.744C57.1688 26.4693 56.9128 27.0667 56.4008 27.536C55.9101 27.984 55.2808 28.208 54.5128 28.208ZM52.4968 32.144C52.4968 31.2693 52.8274 30.6507 53.4888 30.288C54.1501 29.904 55.1528 29.712 56.4968 29.712V43.856C56.4968 44.7093 56.1661 45.328 55.5048 45.712C54.8434 46.096 53.8408 46.288 52.4968 46.288V32.144ZM66.8385 46.288C65.6865 46.288 64.6518 46.0427 63.7345 45.552C62.8172 45.0613 62.0918 44.3893 61.5585 43.536C61.0252 42.6613 60.7585 41.6587 60.7585 40.528V35.472C60.7585 34.3627 61.0358 33.3707 61.5905 32.496C62.1452 31.6213 62.9132 30.9387 63.8945 30.448C64.8972 29.9573 66.0065 29.712 67.2225 29.712C68.0118 29.712 68.8225 29.8827 69.6545 30.224C70.5078 30.544 71.2225 30.9813 71.7985 31.536L71.9265 31.376C71.8198 31.2053 71.5852 30.992 71.2225 30.736V26C71.2225 25.1467 71.5532 24.4853 72.2145 24.016C72.8972 23.5467 73.9212 23.312 75.2865 23.312V43.536C75.2865 44.3253 74.9878 44.9867 74.3905 45.52C73.7932 46.032 72.8652 46.288 71.6065 46.288V44.528C71.8838 44.1867 72.0865 43.9093 72.2145 43.696L72.0545 43.568C71.3932 44.464 70.6572 45.1467 69.8465 45.616C69.0572 46.064 68.0545 46.288 66.8385 46.288ZM68.0225 42.832C68.9825 42.832 69.7612 42.608 70.3585 42.16C70.9772 41.6907 71.2865 41.104 71.2865 40.4V35.568C71.2865 34.8853 70.9772 34.32 70.3585 33.872C69.7612 33.4027 68.9718 33.168 67.9905 33.168C66.9452 33.168 66.1345 33.392 65.5585 33.84C65.0038 34.2667 64.7265 34.8853 64.7265 35.696V40.24C64.7265 41.0933 65.0038 41.744 65.5585 42.192C66.1345 42.6187 66.9558 42.832 68.0225 42.832ZM84.3563 46.288C83.2683 46.288 82.2656 46.0747 81.3483 45.648C80.4523 45.2213 79.7269 44.6133 79.1723 43.824C78.6389 43.0133 78.3723 42.0533 78.3723 40.944C78.3723 39.8347 78.6603 38.8747 79.2363 38.064C79.8123 37.232 80.5909 36.6027 81.5723 36.176C82.5749 35.728 83.6736 35.504 84.8683 35.504C85.8496 35.504 86.7243 35.664 87.4923 35.984C88.2816 36.2827 89.0069 36.7413 89.6683 37.36L89.8283 37.2C89.6363 37.008 89.3056 36.72 88.8363 36.336V35.696C88.8363 34.8213 88.5269 34.128 87.9083 33.616C87.2896 33.104 86.4256 32.848 85.3163 32.848C83.3323 32.848 81.8709 33.5733 80.9323 35.024C80.4629 34.8747 80.0683 34.64 79.7483 34.32C79.4282 33.9787 79.2682 33.616 79.2682 33.232C79.2682 32.592 79.5563 32.0053 80.1323 31.472C80.7083 30.9387 81.4869 30.512 82.4683 30.192C83.4496 29.872 84.5163 29.712 85.6683 29.712C87.9296 29.712 89.6789 30.2453 90.9163 31.312C92.1536 32.3573 92.7723 33.7867 92.7723 35.6V43.6C92.7723 44.5387 92.4736 45.2213 91.8763 45.648C91.2789 46.0747 90.3403 46.288 89.0603 46.288V44.976C89.4229 44.6133 89.6683 44.3467 89.7963 44.176L89.6683 44.016C88.9643 44.7627 88.2069 45.328 87.3963 45.712C86.6069 46.096 85.5936 46.288 84.3563 46.288ZM85.3802 43.376C86.4896 43.376 87.3536 43.1627 87.9723 42.736C88.5909 42.3093 88.9003 41.7013 88.9003 40.912C88.9003 40.144 88.5803 39.536 87.9403 39.088C87.3216 38.64 86.4789 38.416 85.4123 38.416C84.4309 38.416 83.6523 38.64 83.0763 39.088C82.5216 39.5147 82.2443 40.1227 82.2443 40.912C82.2443 41.7227 82.5216 42.3413 83.0763 42.768C83.6309 43.1733 84.3989 43.376 85.3802 43.376ZM97.1568 46C96.7088 46 96.3461 45.84 96.0688 45.52C95.8128 45.1787 95.6848 44.7947 95.6848 44.368C95.6848 43.984 95.7914 43.6747 96.0048 43.44L105.765 32.112L105.573 31.952L104.645 32.976H98.5008C97.7541 32.976 97.1781 32.6987 96.7728 32.144C96.3888 31.5893 96.1968 30.8747 96.1968 30H108.613C109.061 30 109.423 30.1493 109.701 30.448C109.978 30.7467 110.117 31.0987 110.117 31.504C110.117 31.888 109.989 32.24 109.733 32.56L100.005 43.856L100.197 44.048L101.125 43.024H107.845C108.591 43.024 109.157 43.3013 109.541 43.856C109.946 44.4107 110.149 45.1253 110.149 46H97.1568ZM119.083 46.288C117.76 46.288 116.555 46.032 115.467 45.52C114.379 44.9867 113.515 44.272 112.875 43.376C112.235 42.4587 111.915 41.4347 111.915 40.304V36.048C111.915 34.8533 112.245 33.776 112.907 32.816C113.568 31.856 114.443 31.0987 115.531 30.544C116.64 29.9893 117.835 29.712 119.115 29.712C120.373 29.712 121.525 29.9787 122.571 30.512C123.637 31.024 124.48 31.7493 125.099 32.688C125.717 33.6053 126.027 34.6613 126.027 35.856V37.648C126.027 38.1173 125.845 38.512 125.483 38.832C125.141 39.152 124.704 39.312 124.171 39.312H115.787V40.016C115.787 40.9333 116.064 41.68 116.619 42.256C117.173 42.832 118.005 43.12 119.115 43.12C120.181 43.12 120.971 42.8853 121.483 42.416C122.016 41.9467 122.283 41.3387 122.283 40.592C122.667 40.5493 122.933 40.528 123.083 40.528C123.872 40.528 124.491 40.7093 124.939 41.072C125.387 41.4133 125.611 41.904 125.611 42.544C125.611 43.1627 125.323 43.76 124.747 44.336C124.171 44.912 123.381 45.3813 122.379 45.744C121.376 46.1067 120.277 46.288 119.083 46.288ZM122.411 36.464V35.856C122.411 34.96 122.101 34.2347 121.483 33.68C120.864 33.1253 120.064 32.848 119.083 32.848C118.101 32.848 117.301 33.1253 116.683 33.68C116.085 34.2133 115.787 34.9387 115.787 35.856V36.464H122.411Z" fill="white"/>
<g clip-path="url(#clip0_29_1274)">
<path d="M46.7291 10.5417L51.9999 12.0633L57.7933 7.85583L49.4791 8.09417C49.3976 8.09777 49.3184 8.12308 49.2499 8.1675L46.6191 9.68C46.5373 9.72534 46.4709 9.79419 46.4286 9.87765C46.3864 9.96111 46.3701 10.0553 46.3819 10.1481C46.3938 10.2409 46.4332 10.3281 46.4951 10.3982C46.557 10.4684 46.6385 10.5183 46.7291 10.5417Z" fill="#FFBB00"/>
<path d="M72.6434 5.83L66.8684 4.58333C66.3827 4.47789 65.88 4.47817 65.3944 4.58414C64.9089 4.69011 64.4518 4.89929 64.0542 5.1975L46.61 17.875L42.4209 17.6917C42.1809 17.6835 41.9444 17.7509 41.7449 17.8844C41.5453 18.0179 41.3927 18.2107 41.3086 18.4356C41.2246 18.6605 41.2132 18.9061 41.2763 19.1377C41.3393 19.3694 41.4736 19.5754 41.66 19.7267L45.7392 22.9625C45.8063 23.0167 45.8863 23.0527 45.9713 23.0671C46.0564 23.0816 46.1437 23.074 46.225 23.045C47.3892 22.5958 51.725 20.295 56.8492 17.4808L57.8759 28.0317C57.8846 28.123 57.9181 28.2103 57.9727 28.284C58.0274 28.3578 58.1011 28.4152 58.186 28.4501C58.2709 28.485 58.3638 28.4961 58.4545 28.4821C58.5452 28.4681 58.6304 28.4297 58.7009 28.3708L60.9925 26.4642C61.118 26.3589 61.2023 26.2129 61.2309 26.0517L63.4034 13.8692C67.07 11.8342 70.5717 9.86333 73.0375 8.47C73.2934 8.33075 73.5003 8.11622 73.6302 7.85545C73.7601 7.59468 73.8067 7.30029 73.7637 7.01215C73.7206 6.72402 73.5901 6.45608 73.3897 6.24462C73.1893 6.03317 72.9288 5.88842 72.6434 5.83Z" fill="#FFBB00"/>
</g>
<defs>
<clipPath id="clip0_29_1274">
<rect width="33" height="33" fill="white" transform="translate(41)"/>
</clipPath>
</defs>
</svg>
